<svg aria-hidden="true" style="position: absolute; width: 0; height: 0; overflow: hidden;" version="1.1" xmlns="http://www.w3.org/2000/svg" xmlns:xlink="http://www.w3.org/1999/xlink">
<defs>
<symbol id="icon-Group" viewBox="0 0 55 32">
<path d="M16.768 26.558h21.053v5.151h-21.053v-5.151z"></path>
<path d="M50.985 13.698c-0.063 0-0.125 0.002-0.187 0.005-0.995-5.536-5.836-9.737-11.658-9.737-6.542 0-11.846 5.304-11.846 11.846 0-6.542-5.303-11.845-11.846-11.845-5.822 0-10.664 4.201-11.658 9.737-0.062-0.003-0.124-0.005-0.187-0.005-1.86-0-3.368 1.508-3.368 3.368s1.508 3.368 3.368 3.368c1.86 0 3.368-1.508 3.368-3.368 0-1.744-1.326-3.179-3.025-3.35 0.876-2.607 3.337-4.486 6.239-4.486 3.635 0 6.582 2.947 6.582 6.582v7.575h21.053v-7.575c0-3.635 2.947-6.582 6.582-6.582 2.902 0 5.363 1.879 6.239 4.486-1.699 0.172-3.025 1.606-3.025 3.35 0 1.86 1.508 3.368 3.368 3.368s3.368-1.508 3.368-3.368c-0-1.86-1.508-3.368-3.368-3.368z"></path>
<path d="M27.294 6.579c0.378-0.483 0.787-0.945 1.227-1.385 0.876-0.876 1.842-1.63 2.876-2.255-0.891-1.314-2.396-2.177-4.103-2.177s-3.212 0.863-4.103 2.177c1.034 0.624 2 1.379 2.876 2.255 0.44 0.44 0.849 0.903 1.227 1.385z"></path>
</symbol>
<symbol id="icon-Vector" viewBox="0 0 67 32">
<path d="M17.449 1.77c-0.207-0.284-0.004-0.682 0.347-0.682h48.442c0.265 0 0.467 0.238 0.423 0.5l-2.002 11.972c-0.035 0.207-0.213 0.358-0.423 0.358h-37.711c-0.137 0-0.266-0.065-0.347-0.176l-8.729-11.972z"></path>
<path d="M49.218 30.23c0.207 0.284 0.004 0.682-0.347 0.682h-48.442c-0.265 0-0.467-0.238-0.423-0.5l2.002-11.971c0.035-0.207 0.214-0.358 0.423-0.358h37.711c0.137 0 0.266 0.065 0.347 0.176l8.729 11.971z"></path>
</symbol>
</defs>
</svg>
